:FULLY-SPECIFIED
:FORCE-ALL-JOINTS-BE-3DOF
:DEGREES
469
root 10.7803 17.3225 29.7212 4.92716 2.49836 4.13155
lfemur -3.71468 3.04979 -29.8796
ltibia 16.1265 0 0
lfoot -14.3907 4.35031 0
ltoes 2.04869 0 0
rfemur -31.3346 3.54002 11.8705
rtibia 54.7687 0 0
rfoot -17.1784 -9.30356 0
rtoes -11.6179 0 0
lowerback -5.40071 -3.03911 -4.41361
upperback -0.985557 -3.78481 1.07977
thorax 2.37908 -1.93765 3.22601
lowerneck -21.7477 -3.24905 -10.974
upperneck 24.9015 -3.89789 10.6712
head 12.268 -1.40241 5.28964
lclavicle -1.92327e-14 1.26032e-14 0
lhumerus -18.9996 -16.999 87.8531
lradius 25.9882 0 0
lwrist -0.997491 0 0
lhand -12.8309 -24.6875 0
lfingers 7.12502 0 0
lthumb 13.2562 4.87049 0
rclavicle -1.92327e-14 1.26032e-14 0
rhumerus -48.3878 9.22444 -87.3712
rradius 34.7431 0 0
rwrist -14.7759 0 0
rhand -29.9277 -28.9185 0
rfingers 7.12502 0 0
rthumb -3.24765 -58.8725 0
470
root 10.7799 17.3143 29.8498 4.91541 2.62345 4.20911
lfemur -2.703 2.97628 -29.8793
ltibia 15.3284 0 0
lfoot -14.4806 4.35109 0
ltoes 2.10515 0 0
rfemur -31.9711 4.04899 11.5751
rtibia 53.5019 0 0
rfoot -17.7965 -9.28801 0
rtoes -10.9948 0 0
lowerback -5.41859 -3.15489 -4.48964
upperback -0.938467 -3.93367 1.07491
thorax 2.45761 -2.01491 3.24751
lowerneck -21.7902 -3.20218 -10.9174
upperneck 24.9292 -3.85471 10.6909
head 12.2808 -1.37447 5.29668
lclavicle -1.70415e-14 1.31303e-14 0
lhumerus -18.6719 -17.3678 87.7403
lradius 26.4381 0 0
lwrist -0.644906 0 0
lhand -12.9269 -24.7704 0
lfingers 7.12502 0 0
lthumb 13.1637 4.79343 0
rclavicle -1.70415e-14 1.31303e-14 0
rhumerus -48.52 9.13751 -87.2891
rradius 34.8012 0 0
rwrist -14.9654 0 0
rhand -29.8827 -28.6457 0
rfingers 7.12502 0 0
rthumb -3.20417 -58.6003 0
471
root 10.7794 17.3061 29.9784 4.90449 2.74856 4.28328
lfemur -1.69338 2.90137 -29.8728
ltibia 14.5239 0 0
lfoot -14.5692 4.35394 0
ltoes 2.15662 0 0
rfemur -32.5967 4.5648 11.2837
rtibia 52.2003 0 0
rfoot -18.4175 -9.26643 0
rtoes -10.3658 0 0
lowerback -5.43792 -3.26972 -4.56366
upperback -0.890704 -4.08149 1.07091
thorax 2.53775 -2.09166 3.26888
lowerneck -21.8322 -3.15583 -10.861
upperneck 24.9561 -3.81251 10.7117
head 12.2934 -1.34687 5.30399
lclavicle -1.48175e-14 1.36493e-14 0
lhumerus -18.3529 -17.7382 87.629
lradius 26.8934 0 0
lwrist -0.285587 0 0
lhand -13.0217 -24.8529 0
lfingers 7.12502 0 0
lthumb 13.0723 4.7166 0
rclavicle -1.48175e-14 1.36493e-14 0
rhumerus -48.6475 9.05118 -87.2059
rradius 34.861 0 0
rwrist -15.1577 0 0
rhand -29.8369 -28.368 0
rfingers 7.12502 0 0
rthumb -3.15995 -58.3232 0
472
root 10.7789 17.2979 30.107 4.89436 2.87342 4.35423
lfemur -0.687819 2.82538 -29.8606
ltibia 13.7154 0 0
lfoot -14.6564 4.35868 0
ltoes 2.20346 0 0
rfemur -33.2109 5.08567 10.9966
rtibia 50.8703 0 0
rfoot -19.0398 -9.23944 0
rtoes -9.7327 0 0
lowerback -5.45854 -3.38344 -4.63568
upperback -0.842436 -4.22804 1.06768
thorax 2.61918 -2.16778 3.2901
lowerneck -21.8738 -3.11004 -10.8048
upperneck 24.9821 -3.7713 10.7335
head 12.3059 -1.31962 5.31153
lclavicle -1.25687e-14 1.41599e-14 0
lhumerus -18.0425 -18.1091 87.5194
lradius 27.3528 0 0
lwrist 0.0790414 0 0
lhand -13.1152 -24.9349 0
lfingers 7.12502 0 0
lthumb 12.9822 4.64017 0
rclavicle -1.25687e-14 1.41599e-14 0
rhumerus -48.7703 8.96559 -87.1218
rradius 34.9224 0 0
rwrist -15.3521 0 0
rhand -29.7905 -28.0864 0
rfingers 7.12502 0 0
rthumb -3.11516 -58.0422 0
473
root 10.7785 17.2896 30.2355 4.88495 2.99774 4.42212
lfemur 0.311643 2.74858 -29.8434
ltibia 12.9052 0 0
lfoot -14.742 4.36509 0
ltoes 2.24603 0 0
rfemur -33.8135 5.60982 10.7139
rtibia 49.5178 0 0
rfoot -19.6618 -9.20765 0
rtoes -9.09751 0 0
lowerback -5.48026 -3.49589 -4.70574
upperback -0.793832 -4.3731 1.06516
thorax 2.70157 -2.24315 3.31112
lowerneck -21.9149 -3.06488 -10.7491
upperneck 25.0074 -3.73107 10.7562
head 12.3181 -1.29276 5.31926
lclavicle -1.03031e-14 1.46617e-14 0
lhumerus -17.7406 -18.4797 87.4114
lradius 27.8147 0 0
lwrist 0.447556 0 0
lhand -13.2074 -25.0163 0
lfingers 7.12502 0 0
lthumb 12.8933 4.56426 0
rclavicle -1.03031e-14 1.46617e-14 0
rhumerus -48.8886 8.88086 -87.037
rradius 34.985 0 0
rwrist -15.548 0 0
rhand -29.7437 -27.8019 0
rfingers 7.12502 0 0
rthumb -3.06996 -57.7584 0
474
root 10.778 17.2814 30.3641 4.87622 3.12126 4.48708
lfemur 1.30299 2.67129 -29.8218
ltibia 12.0956 0 0
lfoot -14.8261 4.37297 0
ltoes 2.28469 0 0
rfemur -34.4041 6.13548 10.436
rtibia 48.149 0 0
rfoot -20.2819 -9.17168 0
rtoes -8.46216 0 0
lowerback -5.50291 -3.6069 -4.77386
upperback -0.745059 -4.51644 1.06328
thorax 2.78459 -2.31765 3.33191
lowerneck -21.9554 -3.02038 -10.6938
upperneck 25.0318 -3.69182 10.7795
head 12.33 -1.26632 5.32713
lclavicle -8.02857e-15 1.51543e-14 0
lhumerus -17.4471 -18.8489 87.3052
lradius 28.2776 0 0
lwrist 0.818532 0 0
lhand -13.2981 -25.0969 0
lfingers 7.12502 0 0
lthumb 12.8058 4.48903 0
rclavicle -8.02857e-15 1.51543e-14 0
rhumerus -49.0027 8.79713 -86.952
rradius 35.0485 0 0
rwrist -15.7446 0 0
rhand -29.6967 -27.5157 0
rfingers 7.12502 0 0
rthumb -3.02453 -57.4729 0
475
root 10.7775 17.2732 30.4927 4.8681 3.24369 4.5493
lfemur 2.2842 2.59379 -29.7963
ltibia 11.2891 0 0
lfoot -14.9085 4.38212 0
ltoes 2.31979 0 0
rfemur -34.9823 6.66088 10.1631
rtibia 46.7701 0 0
rfoot -20.8983 -9.13215 0
rtoes -7.82861 0 0
lowerback -5.52629 -3.7163 -4.84007
upperback -0.696287 -4.65784 1.06196
thorax 2.86791 -2.39116 3.35244
lowerneck -21.9953 -2.97661 -10.6391
upperneck 25.0555 -3.65356 10.8033
head 12.3418 -1.24033 5.33511
lclavicle -5.75318e-15 1.56373e-14 0
lhumerus -17.1618 -19.2158 87.2009
lradius 28.7399 0 0
lwrist 1.19055 0 0
lhand -13.3873 -25.1765 0
lfingers 7.12502 0 0
lthumb 12.7198 4.41462 0
rclavicle -5.75318e-15 1.56373e-14 0
rhumerus -49.1126 8.71454 -86.867
rradius 35.1126 0 0
rwrist -15.9413 0 0
rhand -29.6496 -27.2289 0
rfingers 7.12502 0 0
rthumb -2.97902 -57.1867 0
476
root 10.7771 17.265 30.6213 4.86054 3.36475 4.60891
lfemur 3.25325 2.51638 -29.7675
ltibia 10.4881 0 0
lfoot -14.9893 4.39233 0
ltoes 2.35169 0 0
rfemur -35.5479 7.18422 9.89555
rtibia 45.3872 0 0
rfoot -21.5095 -9.08966 0
rtoes -7.1988 0 0
lowerback -5.55024 -3.82395 -4.90441
upperback -0.647683 -4.79706 1.06113
thorax 2.95121 -2.46355 3.37266
lowerneck -22.0346 -2.93362 -10.5851
upperneck 25.0784 -3.61629 10.8275
head 12.3533 -1.21481 5.34316
lclavicle -3.48488e-15 1.61105e-14 0
lhumerus -16.8846 -19.5795 87.0987
lradius 29.2002 0 0
lwrist 1.56217 0 0
lhand -13.4748 -25.255 0
lfingers 7.12502 0 0
lthumb 12.6354 4.34119 0
rclavicle -3.48488e-15 1.61105e-14 0
rhumerus -49.2185 8.6332 -86.7823
rradius 35.177 0 0
rwrist -16.1374 0 0
rhand -29.6025 -26.9424 0
rfingers 7.12502 0 0
rthumb -2.9336 -56.9009 0
477
root 10.7766 17.2568 30.7499 4.85349 3.48418 4.66608
lfemur 4.20811 2.43936 -29.7362
ltibia 9.69484 0 0
lfoot -15.0683 4.40342 0
ltoes 2.38075 0 0
rfemur -36.1004 7.70374 9.63351
rtibia 44.0063 0 0
rfoot -22.1138 -9.04485 0
rtoes -6.57468 0 0
lowerback -5.57456 -3.92968 -4.96689
upperback -0.599417 -4.93389 1.06073
thorax 3.03415 -2.53472 3.39255
lowerneck -22.0732 -2.89146 -10.5319
upperneck 25.1006 -3.57999 10.852
head 12.3646 -1.1898 5.35122
lclavicle -1.23165e-15 1.65733e-14 0
lhumerus -16.6154 -19.9389 86.9985
lradius 29.6568 0 0
lwrist 1.93199 0 0
lhand -13.5606 -25.3323 0
lfingers 7.12502 0 0
lthumb 12.5527 4.26886 0
rclavicle -1.23165e-15 1.65733e-14 0
rhumerus -49.3207 8.55327 -86.6981
rradius 35.2414 0 0
rwrist -16.3322 0 0
rhand -29.5558 -26.6575 0
rfingers 7.12502 0 0
rthumb -2.88845 -56.6166 0
478
root 10.7762 17.2485 30.8785 4.84689 3.6017 4.72096
lfemur 5.14677 2.36301 -29.7028
ltibia 8.91177 0 0
lfoot -15.1455 4.41516 0
ltoes 2.40733 0 0
rfemur -36.6397 8.21766 9.37729
rtibia 42.6337 0 0
rfoot -22.7096 -8.99832 0
rtoes -5.95818 0 0
lowerback -5.59909 -4.03331 -5.02755
upperback -0.551655 -5.06809 1.06067
thorax 3.11641 -2.60453 3.41207
lowerneck -22.1109 -2.85018 -10.4796
upperneck 25.1221 -3.54469 10.8764
head 12.3756 -1.16533 5.35927
lclavicle 9.98557e-16 1.70254e-14 0
lhumerus -16.354 -20.2932 86.9006
lradius 30.1084 0 0
lwrist 2.29857 0 0
lhand -13.6445 -25.4082 0
lfingers 7.12502 0 0
lthumb 12.4718 4.1978 0
rclavicle 9.98557e-16 1.70254e-14 0
rhumerus -49.4193 8.47487 -86.6148
rradius 35.3054 0 0
rwrist -16.525 0 0
rhand -29.5095 -26.3751 0
rfingers 7.12502 0 0
rthumb -2.84373 -56.3348 0
479
root 10.7757 17.2403 31.007 4.84069 3.71702 4.77371
lfemur 6.0672 2.28764 -29.668
ltibia 8.14125 0 0
lfoot -15.2208 4.42736 0
ltoes 2.43179 0 0
rfemur -37.1652 8.7242 9.12715
rtibia 41.2754 0 0
rfoot -23.2952 -8.95069 0
rtoes -5.35127 0 0
lowerback -5.62363 -4.1347 -5.08642
upperback -0.504567 -5.19944 1.06089
thorax 3.19766 -2.67287 3.43119
lowerneck -22.1479 -2.80984 -10.4284
upperneck 25.1429 -3.51036 10.9008
head 12.3864 -1.14142 5.36725
lclavicle 3.19775e-15 1.74664e-14 0
lhumerus -16.1004 -20.6413 86.805
lradius 30.5533 0 0
lwrist 2.6605 0 0
lhand -13.7265 -25.4826 0
lfingers 7.12502 0 0
lthumb 12.3927 4.12815 0
rclavicle 3.19775e-15 1.74664e-14 0
rhumerus -49.5145 8.39813 -86.5327
rradius 35.3689 0 0
rwrist -16.715 0 0
rhand -29.4638 -26.0964 0
rfingers 7.12502 0 0
rthumb -2.7996 -56.0568 0
480
root 10.7752 17.2321 31.1356 4.83483 3.82987 4.82449
lfemur 6.96739 2.21354 -29.6324
ltibia 7.38565 0 0
lfoot -15.2941 4.43982 0
ltoes 2.45447 0 0
rfemur -37.6767 9.22158 8.88337
rtibia 39.9376 0 0
rfoot -23.869 -8.90257 0
rtoes -4.75587 0 0
lowerback -5.64801 -4.23368 -5.14351
upperback -0.458322 -5.32771 1.06132
thorax 3.27758 -2.73962 3.44986
lowerneck -22.184 -2.7705 -10.3783
upperneck 25.163 -3.47701 10.925
head 12.3968 -1.11811 5.37514
lclavicle 5.35795e-15 1.78959e-14 0
lhumerus -15.8544 -20.9824 86.7118
lradius 30.9901 0 0
lwrist 3.01634 0 0
lhand -13.8065 -25.5553 0
lfingers 7.12502 0 0
lthumb 12.3156 4.06005 0
rclavicle 5.35795e-15 1.78959e-14 0
rhumerus -49.6064 8.32318 -86.4521
rradius 35.4315 0 0
rwrist -16.9018 0 0
rhand -29.4189 -25.8224 0
rfingers 7.12502 0 0
rthumb -2.75623 -55.7834 0
